<mxfile host="Electron" modified="2024-02-19T11:47:21.844Z" agent="Mozilla/5.0 (Windows NT 10.0; Win64; x64) AppleWebKit/537.36 (KHTML, like Gecko) draw.io/21.2.1 Chrome/112.0.5615.87 Electron/24.1.2 Safari/537.36" etag="iTtV3aHnK5iM9rR0c7B6" version="21.2.1" type="device" pages="6">
  <diagram name="jar" id="QPWp-yxcB6r8VEpbVTgY">
    <mxGraphModel dx="1418" dy="820" grid="1" gridSize="10" guides="1" tooltips="1" connect="1" arrows="1" fold="1" page="1" pageScale="1" pageWidth="827" pageHeight="1169" math="0" shadow="0">
      <root>
        <mxCell id="0" />
        <mxCell id="1" parent="0" />
        <mxCell id="98d8DprfTp4-6zO7Er4j-1" value="debezium-connector-mysql-xxx.jar" style="rounded=1;whiteSpace=wrap;html=1;fillColor=none;strokeColor=#6c8ebf;" parent="1" vertex="1">
          <mxGeometry x="150" y="150" width="210" height="60" as="geometry" />
        </mxCell>
      </root>
    </mxGraphModel>
  </diagram>
  <diagram id="h5sJhSmLp5tN3X5e-fUV" name="parse调用关系">
    <mxGraphModel dx="1434" dy="836" grid="1" gridSize="10" guides="1" tooltips="1" connect="1" arrows="1" fold="1" page="1" pageScale="1" pageWidth="827" pageHeight="1169" math="0" shadow="0">
      <root>
        <mxCell id="0" />
        <mxCell id="1" parent="0" />
        <mxCell id="1VZUZdRoPKh-ERB4cHUX-32" value="" style="endArrow=block;dashed=1;endFill=0;endSize=12;html=1;rounded=0;" edge="1" parent="1">
          <mxGeometry width="160" relative="1" as="geometry">
            <mxPoint x="420" y="636" as="sourcePoint" />
            <mxPoint x="420" y="574" as="targetPoint" />
          </mxGeometry>
        </mxCell>
        <mxCell id="1VZUZdRoPKh-ERB4cHUX-34" value="AbstractDdlParser" style="swimlane;fontStyle=1;align=center;verticalAlign=top;childLayout=stackLayout;horizontal=1;startSize=26;horizontalStack=0;resizeParent=1;resizeParentMax=0;resizeLast=0;collapsible=1;marginBottom=0;whiteSpace=wrap;html=1;fillColor=none;" vertex="1" parent="1">
          <mxGeometry x="342" y="540" width="160" height="34" as="geometry" />
        </mxCell>
        <mxCell id="1VZUZdRoPKh-ERB4cHUX-38" value="&lt;p style=&quot;margin:0px;margin-top:4px;text-align:center;&quot;&gt;&lt;i&gt;&amp;lt;&amp;lt;Interface&amp;gt;&amp;gt;&lt;/i&gt;&lt;br&gt;&lt;b&gt;DdlParser&lt;/b&gt;&lt;/p&gt;&lt;hr size=&quot;1&quot;&gt;&lt;p style=&quot;margin:0px;margin-left:4px;&quot;&gt;+ &lt;b&gt;parse&lt;/b&gt;(String, Tables): void&lt;br&gt;&lt;/p&gt;" style="verticalAlign=top;align=left;overflow=fill;fontSize=12;fontFamily=Helvetica;html=1;whiteSpace=wrap;fillColor=none;" vertex="1" parent="1">
          <mxGeometry x="339" y="636" width="171" height="70" as="geometry" />
        </mxCell>
        <mxCell id="1VZUZdRoPKh-ERB4cHUX-42" value="&lt;font style=&quot;font-size: 20px;&quot;&gt;parse 方法的调用关系&lt;/font&gt;" style="rounded=1;whiteSpace=wrap;html=1;fillColor=#ffcd28;gradientColor=#ffa500;strokeColor=#d79b00;" vertex="1" parent="1">
          <mxGeometry x="342" y="180" width="130" height="60" as="geometry" />
        </mxCell>
        <mxCell id="1VZUZdRoPKh-ERB4cHUX-43" value="AntlrDdlParser" style="swimlane;fontStyle=1;align=center;verticalAlign=top;childLayout=stackLayout;horizontal=1;startSize=26;horizontalStack=0;resizeParent=1;resizeParentMax=0;resizeLast=0;collapsible=1;marginBottom=0;whiteSpace=wrap;html=1;" vertex="1" parent="1">
          <mxGeometry x="334" y="390" width="176" height="86" as="geometry" />
        </mxCell>
        <mxCell id="1VZUZdRoPKh-ERB4cHUX-44" value="+ databaseTables: Tables" style="text;strokeColor=none;fillColor=none;align=left;verticalAlign=top;spacingLeft=4;spacingRight=4;overflow=hidden;rotatable=0;points=[[0,0.5],[1,0.5]];portConstraint=eastwest;whiteSpace=wrap;html=1;" vertex="1" parent="1VZUZdRoPKh-ERB4cHUX-43">
          <mxGeometry y="26" width="176" height="26" as="geometry" />
        </mxCell>
        <mxCell id="1VZUZdRoPKh-ERB4cHUX-45" value="" style="line;strokeWidth=1;fillColor=none;align=left;verticalAlign=middle;spacingTop=-1;spacingLeft=3;spacingRight=3;rotatable=0;labelPosition=right;points=[];portConstraint=eastwest;strokeColor=inherit;" vertex="1" parent="1VZUZdRoPKh-ERB4cHUX-43">
          <mxGeometry y="52" width="176" height="8" as="geometry" />
        </mxCell>
        <mxCell id="1VZUZdRoPKh-ERB4cHUX-46" value="+&amp;nbsp;&lt;b style=&quot;border-color: var(--border-color);&quot;&gt;parse&lt;/b&gt;(String, Tables): void" style="text;strokeColor=none;fillColor=none;align=left;verticalAlign=top;spacingLeft=4;spacingRight=4;overflow=hidden;rotatable=0;points=[[0,0.5],[1,0.5]];portConstraint=eastwest;whiteSpace=wrap;html=1;" vertex="1" parent="1VZUZdRoPKh-ERB4cHUX-43">
          <mxGeometry y="60" width="176" height="26" as="geometry" />
        </mxCell>
        <mxCell id="1VZUZdRoPKh-ERB4cHUX-47" value="" style="endArrow=block;endSize=16;endFill=0;html=1;rounded=0;entryX=0.488;entryY=1;entryDx=0;entryDy=0;entryPerimeter=0;jumpSize=6;" edge="1" parent="1" target="1VZUZdRoPKh-ERB4cHUX-46">
          <mxGeometry y="-10" width="160" relative="1" as="geometry">
            <mxPoint x="420" y="540" as="sourcePoint" />
            <mxPoint x="410" y="480" as="targetPoint" />
            <mxPoint as="offset" />
          </mxGeometry>
        </mxCell>
        <mxCell id="1VZUZdRoPKh-ERB4cHUX-79" value="MySqlAntlrDdlParser" style="swimlane;fontStyle=1;align=center;verticalAlign=top;childLayout=stackLayout;horizontal=1;startSize=26;horizontalStack=0;resizeParent=1;resizeParentMax=0;resizeLast=0;collapsible=1;marginBottom=0;whiteSpace=wrap;html=1;" vertex="1" parent="1">
          <mxGeometry x="312" y="269" width="218" height="60" as="geometry" />
        </mxCell>
        <mxCell id="1VZUZdRoPKh-ERB4cHUX-82" value="&lt;span style=&quot;border-color: var(--border-color);&quot;&gt;#&amp;nbsp;&lt;/span&gt;&lt;b style=&quot;border-color: var(--border-color);&quot;&gt;parseTree&lt;/b&gt;(MysqlParser): parseTree" style="text;strokeColor=none;fillColor=none;align=left;verticalAlign=top;spacingLeft=4;spacingRight=4;overflow=hidden;rotatable=0;points=[[0,0.5],[1,0.5]];portConstraint=eastwest;whiteSpace=wrap;html=1;" vertex="1" parent="1VZUZdRoPKh-ERB4cHUX-79">
          <mxGeometry y="26" width="218" height="34" as="geometry" />
        </mxCell>
        <mxCell id="1VZUZdRoPKh-ERB4cHUX-83" value="" style="endArrow=block;endSize=16;endFill=0;html=1;rounded=0;entryX=0.488;entryY=1;entryDx=0;entryDy=0;entryPerimeter=0;jumpSize=6;exitX=0.46;exitY=-0.047;exitDx=0;exitDy=0;exitPerimeter=0;" edge="1" parent="1">
          <mxGeometry y="-10" width="160" relative="1" as="geometry">
            <mxPoint x="414.96000000000004" y="389" as="sourcePoint" />
            <mxPoint x="414.8599999999999" y="328" as="targetPoint" />
            <mxPoint as="offset" />
          </mxGeometry>
        </mxCell>
        <mxCell id="1VZUZdRoPKh-ERB4cHUX-84" value="具体实现 parse 方法" style="text;html=1;strokeColor=none;fillColor=none;align=center;verticalAlign=middle;whiteSpace=wrap;rounded=0;" vertex="1" parent="1">
          <mxGeometry x="510" y="446" width="128" height="30" as="geometry" />
        </mxCell>
        <mxCell id="1VZUZdRoPKh-ERB4cHUX-85" value="定义 parse 接口" style="text;html=1;strokeColor=none;fillColor=none;align=center;verticalAlign=middle;whiteSpace=wrap;rounded=0;" vertex="1" parent="1">
          <mxGeometry x="500" y="676" width="128" height="30" as="geometry" />
        </mxCell>
        <mxCell id="1VZUZdRoPKh-ERB4cHUX-86" value="parse 方法调用 parseTree" style="text;html=1;strokeColor=none;fillColor=none;align=center;verticalAlign=middle;whiteSpace=wrap;rounded=0;" vertex="1" parent="1">
          <mxGeometry x="526" y="300" width="170" height="30" as="geometry" />
        </mxCell>
      </root>
    </mxGraphModel>
  </diagram>
  <diagram id="smM7-ASY-tijDSiQfORA" name="split&amp;reader">
    <mxGraphModel dx="1434" dy="836" grid="1" gridSize="10" guides="1" tooltips="1" connect="1" arrows="1" fold="1" page="1" pageScale="1" pageWidth="827" pageHeight="1169" math="0" shadow="0">
      <root>
        <mxCell id="0" />
        <mxCell id="1" parent="0" />
        <mxCell id="hFOBZ0-TEOp2b1zP58HY-1" value="" style="shape=cylinder3;whiteSpace=wrap;html=1;boundedLbl=1;backgroundOutline=1;size=15;fillColor=none;" vertex="1" parent="1">
          <mxGeometry x="40" y="230" width="140" height="180" as="geometry" />
        </mxCell>
        <mxCell id="hFOBZ0-TEOp2b1zP58HY-4" value="Table 1" style="rounded=0;whiteSpace=wrap;html=1;fillColor=none;" vertex="1" parent="1">
          <mxGeometry x="70" y="280" width="80" height="40" as="geometry" />
        </mxCell>
        <mxCell id="hFOBZ0-TEOp2b1zP58HY-5" value="Table n" style="rounded=0;whiteSpace=wrap;html=1;fillColor=none;" vertex="1" parent="1">
          <mxGeometry x="70" y="349" width="80" height="40" as="geometry" />
        </mxCell>
        <mxCell id="hFOBZ0-TEOp2b1zP58HY-6" value="Storage" style="text;html=1;strokeColor=none;fillColor=none;align=center;verticalAlign=middle;whiteSpace=wrap;rounded=0;fontSize=18;" vertex="1" parent="1">
          <mxGeometry x="80" y="420" width="60" height="30" as="geometry" />
        </mxCell>
        <mxCell id="hFOBZ0-TEOp2b1zP58HY-7" value="&lt;font style=&quot;font-size: 15px;&quot;&gt;...&lt;/font&gt;" style="text;html=1;strokeColor=none;fillColor=none;align=center;verticalAlign=middle;whiteSpace=wrap;rounded=0;rotation=90;fontStyle=1" vertex="1" parent="1">
          <mxGeometry x="86" y="319" width="60" height="30" as="geometry" />
        </mxCell>
        <mxCell id="hFOBZ0-TEOp2b1zP58HY-13" value="" style="shape=flexArrow;endArrow=classic;html=1;rounded=0;sketch=1;curveFitting=1;jiggle=2;labelBackgroundColor=none;fillColor=none;" edge="1" parent="1">
          <mxGeometry width="50" height="50" relative="1" as="geometry">
            <mxPoint x="190" y="340" as="sourcePoint" />
            <mxPoint x="280" y="340" as="targetPoint" />
          </mxGeometry>
        </mxCell>
        <mxCell id="hFOBZ0-TEOp2b1zP58HY-14" value="" style="rounded=1;whiteSpace=wrap;html=1;fillColor=#d5e8d4;gradientColor=#97d077;strokeColor=#82b366;sketch=1;curveFitting=1;jiggle=2;glass=0;shadow=0;" vertex="1" parent="1">
          <mxGeometry x="290" y="264.5" width="200" height="111" as="geometry" />
        </mxCell>
        <mxCell id="hFOBZ0-TEOp2b1zP58HY-15" value="SourceSplitEnumerator" style="text;html=1;strokeColor=none;fillColor=none;align=center;verticalAlign=middle;whiteSpace=wrap;rounded=0;fontSize=18;" vertex="1" parent="1">
          <mxGeometry x="360" y="280" width="60" height="30" as="geometry" />
        </mxCell>
        <mxCell id="hFOBZ0-TEOp2b1zP58HY-16" value="" style="rounded=1;whiteSpace=wrap;html=1;fillColor=default;strokeColor=#d79b00;gradientColor=#ffa500;sketch=1;curveFitting=1;jiggle=2;" vertex="1" parent="1">
          <mxGeometry x="650" y="259" width="140" height="81" as="geometry" />
        </mxCell>
        <mxCell id="hFOBZ0-TEOp2b1zP58HY-17" value="Reader" style="text;html=1;strokeColor=none;fillColor=none;align=center;verticalAlign=middle;whiteSpace=wrap;rounded=0;fontSize=18;" vertex="1" parent="1">
          <mxGeometry x="690" y="264.5" width="60" height="30" as="geometry" />
        </mxCell>
      </root>
    </mxGraphModel>
  </diagram>
  <diagram id="IIXoVjcSCXF8fpWk5Cjh" name="snapshot">
    <mxGraphModel dx="1418" dy="820" grid="1" gridSize="10" guides="1" tooltips="1" connect="1" arrows="1" fold="1" page="1" pageScale="1" pageWidth="827" pageHeight="1169" math="0" shadow="0">
      <root>
        <mxCell id="0" />
        <mxCell id="1" parent="0" />
        <mxCell id="gTMbd1CUSUByBprKtUBH-1" value="" style="rounded=0;whiteSpace=wrap;html=1;fillColor=#d5e8d4;gradientColor=#97d077;strokeColor=#82b366;" parent="1" vertex="1">
          <mxGeometry x="150" y="230" width="570" height="60" as="geometry" />
        </mxCell>
        <mxCell id="gTMbd1CUSUByBprKtUBH-3" value="" style="endArrow=none;html=1;rounded=0;" parent="1" edge="1">
          <mxGeometry width="50" height="50" relative="1" as="geometry">
            <mxPoint x="520" y="290" as="sourcePoint" />
            <mxPoint x="520" y="230" as="targetPoint" />
          </mxGeometry>
        </mxCell>
        <mxCell id="gTMbd1CUSUByBprKtUBH-4" value="" style="endArrow=classic;html=1;rounded=0;" parent="1" edge="1">
          <mxGeometry width="50" height="50" relative="1" as="geometry">
            <mxPoint x="150" y="349" as="sourcePoint" />
            <mxPoint x="150" y="290" as="targetPoint" />
          </mxGeometry>
        </mxCell>
        <mxCell id="gTMbd1CUSUByBprKtUBH-5" value="LowWaterMark" style="text;html=1;strokeColor=none;fillColor=none;align=center;verticalAlign=middle;whiteSpace=wrap;rounded=0;fontSize=19;" parent="1" vertex="1">
          <mxGeometry x="130" y="350" width="60" height="30" as="geometry" />
        </mxCell>
        <mxCell id="gTMbd1CUSUByBprKtUBH-6" value="HighWaterMark" style="text;html=1;strokeColor=none;fillColor=none;align=center;verticalAlign=middle;whiteSpace=wrap;rounded=0;fontSize=19;" parent="1" vertex="1">
          <mxGeometry x="500" y="360" width="60" height="30" as="geometry" />
        </mxCell>
        <mxCell id="gTMbd1CUSUByBprKtUBH-7" value="" style="endArrow=classic;html=1;rounded=0;" parent="1" edge="1">
          <mxGeometry width="50" height="50" relative="1" as="geometry">
            <mxPoint x="520" y="349" as="sourcePoint" />
            <mxPoint x="520" y="290" as="targetPoint" />
          </mxGeometry>
        </mxCell>
        <mxCell id="gTMbd1CUSUByBprKtUBH-8" value="&lt;div style=&quot;font-size: 18px; line-height: 24px;&quot;&gt;&lt;span style=&quot;&quot;&gt;low watermark event&lt;/span&gt;&lt;/div&gt;" style="text;html=1;strokeColor=none;fillColor=none;align=center;verticalAlign=middle;whiteSpace=wrap;rounded=0;fontColor=default;labelBackgroundColor=none;" parent="1" vertex="1">
          <mxGeometry x="130" y="245" width="220" height="30" as="geometry" />
        </mxCell>
        <mxCell id="gTMbd1CUSUByBprKtUBH-10" value="" style="endArrow=none;html=1;rounded=0;" parent="1" edge="1">
          <mxGeometry width="50" height="50" relative="1" as="geometry">
            <mxPoint x="330" y="290" as="sourcePoint" />
            <mxPoint x="330" y="230" as="targetPoint" />
          </mxGeometry>
        </mxCell>
        <mxCell id="gTMbd1CUSUByBprKtUBH-11" value="&lt;div style=&quot;font-size: 18px; line-height: 24px;&quot;&gt;&lt;span style=&quot;&quot;&gt;snapshot events&lt;/span&gt;&lt;/div&gt;" style="text;html=1;strokeColor=none;fillColor=none;align=center;verticalAlign=middle;whiteSpace=wrap;rounded=0;fontColor=default;labelBackgroundColor=none;" parent="1" vertex="1">
          <mxGeometry x="340" y="245" width="170" height="30" as="geometry" />
        </mxCell>
        <mxCell id="gTMbd1CUSUByBprKtUBH-12" value="&lt;div style=&quot;font-size: 18px; line-height: 24px;&quot;&gt;&lt;span style=&quot;&quot;&gt;high watermark event&lt;/span&gt;&lt;/div&gt;" style="text;html=1;strokeColor=none;fillColor=none;align=center;verticalAlign=middle;whiteSpace=wrap;rounded=0;fontColor=default;labelBackgroundColor=none;" parent="1" vertex="1">
          <mxGeometry x="510" y="245" width="220" height="30" as="geometry" />
        </mxCell>
        <mxCell id="gTMbd1CUSUByBprKtUBH-13" value="SelectSql" style="text;html=1;strokeColor=none;fillColor=none;align=center;verticalAlign=middle;whiteSpace=wrap;rounded=0;fontSize=19;" parent="1" vertex="1">
          <mxGeometry x="120" y="130" width="60" height="30" as="geometry" />
        </mxCell>
        <mxCell id="gTMbd1CUSUByBprKtUBH-14" value="" style="endArrow=classic;html=1;rounded=0;entryX=0;entryY=0;entryDx=0;entryDy=0;" parent="1" target="gTMbd1CUSUByBprKtUBH-1" edge="1">
          <mxGeometry width="50" height="50" relative="1" as="geometry">
            <mxPoint x="150" y="160" as="sourcePoint" />
            <mxPoint x="149.5" y="230" as="targetPoint" />
          </mxGeometry>
        </mxCell>
        <mxCell id="gTMbd1CUSUByBprKtUBH-15" value="" style="endArrow=classic;html=1;rounded=0;entryX=0;entryY=0;entryDx=0;entryDy=0;" parent="1" edge="1">
          <mxGeometry width="50" height="50" relative="1" as="geometry">
            <mxPoint x="330" y="160" as="sourcePoint" />
            <mxPoint x="330" y="230" as="targetPoint" />
          </mxGeometry>
        </mxCell>
        <mxCell id="gTMbd1CUSUByBprKtUBH-16" value="DataReceiver" style="text;html=1;strokeColor=none;fillColor=none;align=center;verticalAlign=middle;whiteSpace=wrap;rounded=0;fontSize=19;" parent="1" vertex="1">
          <mxGeometry x="300" y="130" width="60" height="30" as="geometry" />
        </mxCell>
        <mxCell id="gTMbd1CUSUByBprKtUBH-17" value="使用数据库全局读锁读取 binlog position" style="text;html=1;strokeColor=none;fillColor=none;align=center;verticalAlign=middle;whiteSpace=wrap;rounded=0;fontSize=16;" parent="1" vertex="1">
          <mxGeometry x="50" y="390" width="220" height="30" as="geometry" />
        </mxCell>
      </root>
    </mxGraphModel>
  </diagram>
  <diagram id="AY69FSKkuL_eJlXByfB2" name="MySQL-global-read-lock">
    <mxGraphModel dx="1418" dy="820" grid="1" gridSize="10" guides="1" tooltips="1" connect="1" arrows="1" fold="1" page="1" pageScale="1" pageWidth="827" pageHeight="1169" math="0" shadow="0">
      <root>
        <mxCell id="0" />
        <mxCell id="1" parent="0" />
        <mxCell id="xmXU5Rc_kq27SqO5DNA1-2" value="«interface»&lt;br&gt;&lt;b&gt;SnapshotChangeEventSource&lt;/b&gt;" style="html=1;whiteSpace=wrap;fillColor=none;" parent="1" vertex="1">
          <mxGeometry x="299" y="525" width="180" height="45" as="geometry" />
        </mxCell>
        <mxCell id="wDL28f1qUCCaU4bjpYnP-2" value="«interface»&lt;br&gt;&lt;b&gt;ChangeEventSource&amp;nbsp;&lt;/b&gt;" style="html=1;whiteSpace=wrap;fillColor=none;" parent="1" vertex="1">
          <mxGeometry x="299" y="630" width="180" height="45" as="geometry" />
        </mxCell>
        <mxCell id="wDL28f1qUCCaU4bjpYnP-4" value="&lt;font style=&quot;font-size: 10px;&quot;&gt;Extends&lt;/font&gt;" style="endArrow=block;endSize=16;endFill=0;html=1;rounded=0;exitX=0.5;exitY=0;exitDx=0;exitDy=0;" parent="1" edge="1">
          <mxGeometry x="-0.3333" y="-2" width="160" relative="1" as="geometry">
            <mxPoint x="388" y="630" as="sourcePoint" />
            <mxPoint x="388" y="570" as="targetPoint" />
            <mxPoint as="offset" />
          </mxGeometry>
        </mxCell>
        <mxCell id="wDL28f1qUCCaU4bjpYnP-5" value="AbstractSnapshotChangeEventSource" style="swimlane;fontStyle=1;align=center;verticalAlign=top;childLayout=stackLayout;horizontal=1;startSize=26;horizontalStack=0;resizeParent=1;resizeParentMax=0;resizeLast=0;collapsible=1;marginBottom=0;whiteSpace=wrap;html=1;fillColor=none;" parent="1" vertex="1">
          <mxGeometry x="259" y="382" width="260" height="86" as="geometry" />
        </mxCell>
        <mxCell id="wDL28f1qUCCaU4bjpYnP-33" value="+&amp;nbsp;&lt;b&gt;&lt;font color=&quot;#ff0000&quot;&gt;execute&lt;/font&gt;&lt;/b&gt;&lt;span style=&quot;background-color: initial;&quot;&gt;(...):&amp;nbsp;&lt;/span&gt;SnapshotResult&amp;lt;O&amp;gt;" style="text;strokeColor=none;fillColor=none;align=left;verticalAlign=top;spacingLeft=4;spacingRight=4;overflow=hidden;rotatable=0;points=[[0,0.5],[1,0.5]];portConstraint=eastwest;whiteSpace=wrap;html=1;" parent="wDL28f1qUCCaU4bjpYnP-5" vertex="1">
          <mxGeometry y="26" width="260" height="26" as="geometry" />
        </mxCell>
        <mxCell id="wDL28f1qUCCaU4bjpYnP-7" value="" style="line;strokeWidth=1;fillColor=none;align=left;verticalAlign=middle;spacingTop=-1;spacingLeft=3;spacingRight=3;rotatable=0;labelPosition=right;points=[];portConstraint=eastwest;strokeColor=inherit;" parent="wDL28f1qUCCaU4bjpYnP-5" vertex="1">
          <mxGeometry y="52" width="260" height="8" as="geometry" />
        </mxCell>
        <mxCell id="wDL28f1qUCCaU4bjpYnP-31" value="# doExecute(...):&amp;nbsp;abstract&amp;nbsp;&lt;span style=&quot;background-color: initial;&quot;&gt;&lt;/span&gt;SnapshotResult&amp;lt;O&amp;gt;" style="text;strokeColor=none;fillColor=none;align=left;verticalAlign=top;spacingLeft=4;spacingRight=4;overflow=hidden;rotatable=0;points=[[0,0.5],[1,0.5]];portConstraint=eastwest;whiteSpace=wrap;html=1;" parent="wDL28f1qUCCaU4bjpYnP-5" vertex="1">
          <mxGeometry y="60" width="260" height="26" as="geometry" />
        </mxCell>
        <mxCell id="wDL28f1qUCCaU4bjpYnP-9" value="" style="endArrow=block;dashed=1;endFill=0;endSize=12;html=1;rounded=0;exitX=0.5;exitY=0;exitDx=0;exitDy=0;" parent="1" source="xmXU5Rc_kq27SqO5DNA1-2" edge="1">
          <mxGeometry width="160" relative="1" as="geometry">
            <mxPoint x="349" y="520" as="sourcePoint" />
            <mxPoint x="389" y="470" as="targetPoint" />
          </mxGeometry>
        </mxCell>
        <mxCell id="wDL28f1qUCCaU4bjpYnP-10" value="&lt;b&gt;抽象类&lt;/b&gt;" style="text;html=1;strokeColor=none;fillColor=none;align=center;verticalAlign=middle;whiteSpace=wrap;rounded=0;" parent="1" vertex="1">
          <mxGeometry x="519" y="382" width="60" height="30" as="geometry" />
        </mxCell>
        <mxCell id="wDL28f1qUCCaU4bjpYnP-13" value="RelationalSnapshotChangeEventSource" style="swimlane;fontStyle=1;align=center;verticalAlign=top;childLayout=stackLayout;horizontal=1;startSize=26;horizontalStack=0;resizeParent=1;resizeParentMax=0;resizeLast=0;collapsible=1;marginBottom=0;whiteSpace=wrap;html=1;fillColor=none;" parent="1" vertex="1">
          <mxGeometry x="250" y="220" width="289" height="90" as="geometry" />
        </mxCell>
        <mxCell id="wDL28f1qUCCaU4bjpYnP-14" value="+ &lt;b&gt;&lt;font color=&quot;#ff0000&quot;&gt;doExecute&lt;/font&gt;&lt;/b&gt;(...): SnapshotResult&amp;lt;O&amp;gt;" style="text;strokeColor=none;fillColor=none;align=left;verticalAlign=top;spacingLeft=4;spacingRight=4;overflow=hidden;rotatable=0;points=[[0,0.5],[1,0.5]];portConstraint=eastwest;whiteSpace=wrap;html=1;" parent="wDL28f1qUCCaU4bjpYnP-13" vertex="1">
          <mxGeometry y="26" width="289" height="26" as="geometry" />
        </mxCell>
        <mxCell id="wDL28f1qUCCaU4bjpYnP-15" value="" style="line;strokeWidth=1;fillColor=none;align=left;verticalAlign=middle;spacingTop=-1;spacingLeft=3;spacingRight=3;rotatable=0;labelPosition=right;points=[];portConstraint=eastwest;strokeColor=inherit;" parent="wDL28f1qUCCaU4bjpYnP-13" vertex="1">
          <mxGeometry y="52" width="289" height="8" as="geometry" />
        </mxCell>
        <mxCell id="wDL28f1qUCCaU4bjpYnP-16" value="# lockTablesForSchemaSnapshot&lt;span style=&quot;background-color: initial;&quot;&gt;(...): abstract void&lt;/span&gt;" style="text;strokeColor=none;fillColor=none;align=left;verticalAlign=top;spacingLeft=4;spacingRight=4;overflow=hidden;rotatable=0;points=[[0,0.5],[1,0.5]];portConstraint=eastwest;whiteSpace=wrap;html=1;" parent="wDL28f1qUCCaU4bjpYnP-13" vertex="1">
          <mxGeometry y="60" width="289" height="30" as="geometry" />
        </mxCell>
        <mxCell id="wDL28f1qUCCaU4bjpYnP-17" value="抽象类" style="text;html=1;strokeColor=none;fillColor=none;align=center;verticalAlign=middle;whiteSpace=wrap;rounded=0;fontStyle=1" parent="1" vertex="1">
          <mxGeometry x="549" y="220" width="40" height="30" as="geometry" />
        </mxCell>
        <mxCell id="wDL28f1qUCCaU4bjpYnP-18" value="MySqlSnapshotChangeEventSource" style="swimlane;fontStyle=1;align=center;verticalAlign=top;childLayout=stackLayout;horizontal=1;startSize=26;horizontalStack=0;resizeParent=1;resizeParentMax=0;resizeLast=0;collapsible=1;marginBottom=0;whiteSpace=wrap;html=1;fillColor=none;" parent="1" vertex="1">
          <mxGeometry x="249" y="63" width="260" height="84" as="geometry" />
        </mxCell>
        <mxCell id="wDL28f1qUCCaU4bjpYnP-21" value="#&amp;nbsp;&lt;b&gt;&lt;font color=&quot;#ff0000&quot;&gt;lockTablesForSchemaSnapshot&lt;/font&gt;&lt;/b&gt;(...): void" style="text;strokeColor=none;fillColor=none;align=left;verticalAlign=top;spacingLeft=4;spacingRight=4;overflow=hidden;rotatable=0;points=[[0,0.5],[1,0.5]];portConstraint=eastwest;whiteSpace=wrap;html=1;" parent="wDL28f1qUCCaU4bjpYnP-18" vertex="1">
          <mxGeometry y="26" width="260" height="24" as="geometry" />
        </mxCell>
        <mxCell id="wDL28f1qUCCaU4bjpYnP-20" value="" style="line;strokeWidth=1;fillColor=none;align=left;verticalAlign=middle;spacingTop=-1;spacingLeft=3;spacingRight=3;rotatable=0;labelPosition=right;points=[];portConstraint=eastwest;strokeColor=inherit;" parent="wDL28f1qUCCaU4bjpYnP-18" vertex="1">
          <mxGeometry y="50" width="260" height="8" as="geometry" />
        </mxCell>
        <mxCell id="wDL28f1qUCCaU4bjpYnP-35" value="- globalLock: void" style="text;strokeColor=none;fillColor=none;align=left;verticalAlign=top;spacingLeft=4;spacingRight=4;overflow=hidden;rotatable=0;points=[[0,0.5],[1,0.5]];portConstraint=eastwest;whiteSpace=wrap;html=1;" parent="wDL28f1qUCCaU4bjpYnP-18" vertex="1">
          <mxGeometry y="58" width="260" height="26" as="geometry" />
        </mxCell>
        <mxCell id="wDL28f1qUCCaU4bjpYnP-26" value="&lt;font style=&quot;font-size: 10px;&quot;&gt;Extends&lt;/font&gt;" style="endArrow=block;endSize=16;endFill=0;html=1;rounded=0;" parent="1" edge="1">
          <mxGeometry width="160" relative="1" as="geometry">
            <mxPoint x="379" y="220" as="sourcePoint" />
            <mxPoint x="379" y="150" as="targetPoint" />
            <mxPoint as="offset" />
          </mxGeometry>
        </mxCell>
        <mxCell id="wDL28f1qUCCaU4bjpYnP-27" value="&lt;font style=&quot;font-size: 10px;&quot;&gt;Extends&lt;/font&gt;" style="endArrow=block;endSize=16;endFill=0;html=1;rounded=0;entryX=0.457;entryY=1.067;entryDx=0;entryDy=0;entryPerimeter=0;" parent="1" target="wDL28f1qUCCaU4bjpYnP-16" edge="1">
          <mxGeometry x="-0.1175" width="160" relative="1" as="geometry">
            <mxPoint x="382" y="380" as="sourcePoint" />
            <mxPoint x="382" y="320" as="targetPoint" />
            <mxPoint as="offset" />
          </mxGeometry>
        </mxCell>
        <mxCell id="wDL28f1qUCCaU4bjpYnP-36" value="MySQL &lt;br&gt;global read lock 类图关系" style="rounded=1;whiteSpace=wrap;html=1;fillColor=#d5e8d4;gradientColor=#97d077;strokeColor=#82b366;fontSize=22;" parent="1" vertex="1">
          <mxGeometry x="10" y="3" width="170" height="97" as="geometry" />
        </mxCell>
        <mxCell id="wDL28f1qUCCaU4bjpYnP-39" value="提供方法 execute() 的定义&amp;nbsp;" style="text;html=1;strokeColor=none;fillColor=none;align=center;verticalAlign=middle;whiteSpace=wrap;rounded=0;" parent="1" vertex="1">
          <mxGeometry x="488.5" y="532.5" width="161" height="30" as="geometry" />
        </mxCell>
        <mxCell id="wtYBTm2d3GWfQXHRJhQy-1" value="具体类" style="text;html=1;strokeColor=none;fillColor=none;align=center;verticalAlign=middle;whiteSpace=wrap;rounded=0;fontStyle=1" parent="1" vertex="1">
          <mxGeometry x="519" y="63" width="40" height="30" as="geometry" />
        </mxCell>
        <mxCell id="A9HKHOgzxemVLaRz3FHe-1" value="具体实现" style="text;html=1;align=center;verticalAlign=middle;resizable=0;points=[];autosize=1;strokeColor=none;fillColor=none;" vertex="1" parent="1">
          <mxGeometry x="515" y="408" width="70" height="30" as="geometry" />
        </mxCell>
      </root>
    </mxGraphModel>
  </diagram>
  <diagram id="TcMDLGZcKWEZXfC67O-5" name="snapshot-func">
    <mxGraphModel dx="2245" dy="820" grid="1" gridSize="10" guides="1" tooltips="1" connect="1" arrows="1" fold="1" page="1" pageScale="1" pageWidth="827" pageHeight="1169" math="0" shadow="0">
      <root>
        <mxCell id="0" />
        <mxCell id="1" parent="0" />
        <mxCell id="nATbKsnLnyry--IPE0K3-120" value="MySqlConnectorTask.start()" style="edgeStyle=none;verticalLabelPosition=top;verticalAlign=bottom;labelPosition=left;align=right;rounded=0;labelBackgroundColor=none;fontStyle=1;entryX=0;entryY=0.5;entryDx=0;entryDy=0;" parent="1" edge="1" target="nATbKsnLnyry--IPE0K3-121">
          <mxGeometry x="-10" y="-60" width="100" height="100" as="geometry">
            <mxPoint x="-60" y="115" as="sourcePoint" />
            <mxPoint x="70" y="114.5" as="targetPoint" />
            <mxPoint x="20" y="-4" as="offset" />
          </mxGeometry>
        </mxCell>
        <mxCell id="exFZdDvBx4RPGNR_UJjL-4" value="" style="edgeStyle=orthogonalEdgeStyle;rounded=0;orthogonalLoop=1;jettySize=auto;html=1;" edge="1" parent="1" source="nATbKsnLnyry--IPE0K3-121" target="exFZdDvBx4RPGNR_UJjL-1">
          <mxGeometry relative="1" as="geometry" />
        </mxCell>
        <mxCell id="nATbKsnLnyry--IPE0K3-121" value="ChangeEventSourceCoordinator.java&#xa;start()" style="shadow=1;fillColor=#cce5ff;strokeColor=#36393d;fontStyle=1;" parent="1" vertex="1">
          <mxGeometry x="70" y="90" width="220" height="50" as="geometry" />
        </mxCell>
        <mxCell id="nATbKsnLnyry--IPE0K3-174" value="snapshot" style="rounded=1;fontStyle=1;fillColor=#FFD966;strokeColor=none;fontSize=24;" parent="1" vertex="1">
          <mxGeometry x="-150" y="10" width="150" height="50" as="geometry" />
        </mxCell>
        <mxCell id="PYvw7f8PJ3R1NR59HBYI-2" value="" style="edgeStyle=orthogonalEdgeStyle;rounded=0;orthogonalLoop=1;jettySize=auto;html=1;" edge="1" parent="1" source="S2lZI3bxyD2s2Ba1YcQO-1" target="PYvw7f8PJ3R1NR59HBYI-1">
          <mxGeometry relative="1" as="geometry" />
        </mxCell>
        <mxCell id="S2lZI3bxyD2s2Ba1YcQO-1" value="&#xa;ChangeEventSourceCoordinator.java&#xa;doSnapshot()" style="shadow=1;fillColor=#cce5ff;strokeColor=#36393d;fontStyle=1" vertex="1" parent="1">
          <mxGeometry x="570" y="90" width="220" height="50" as="geometry" />
        </mxCell>
        <mxCell id="exFZdDvBx4RPGNR_UJjL-5" value="" style="edgeStyle=orthogonalEdgeStyle;rounded=0;orthogonalLoop=1;jettySize=auto;html=1;" edge="1" parent="1" source="exFZdDvBx4RPGNR_UJjL-1" target="S2lZI3bxyD2s2Ba1YcQO-1">
          <mxGeometry relative="1" as="geometry" />
        </mxCell>
        <mxCell id="exFZdDvBx4RPGNR_UJjL-1" value="ChangeEventSourceCoordinator.java&#xa;executeChangeEventSources()" style="shadow=1;fillColor=#cce5ff;strokeColor=#36393d;fontStyle=1" vertex="1" parent="1">
          <mxGeometry x="320" y="90" width="220" height="50" as="geometry" />
        </mxCell>
        <mxCell id="exFZdDvBx4RPGNR_UJjL-6" value="创建一个线程执行调用&lt;br&gt;executeChangeEventSources" style="text;html=1;align=center;verticalAlign=middle;resizable=0;points=[];autosize=1;strokeColor=none;fillColor=none;" vertex="1" parent="1">
          <mxGeometry x="90" y="143" width="180" height="40" as="geometry" />
        </mxCell>
        <mxCell id="k3hSCQrrgpwIpEXquyhJ-2" value="" style="edgeStyle=orthogonalEdgeStyle;rounded=0;orthogonalLoop=1;jettySize=auto;html=1;" edge="1" parent="1" source="PYvw7f8PJ3R1NR59HBYI-1" target="k3hSCQrrgpwIpEXquyhJ-1">
          <mxGeometry relative="1" as="geometry" />
        </mxCell>
        <mxCell id="PYvw7f8PJ3R1NR59HBYI-1" value="&#xa;MySqlSnapshotChangeEventSource.java&#xa;execute()" style="shadow=1;fillColor=#cce5ff;strokeColor=#36393d;fontStyle=1" vertex="1" parent="1">
          <mxGeometry x="820" y="90" width="250" height="50" as="geometry" />
        </mxCell>
        <mxCell id="-zV9LzQsYV4PcWvE6w7X-1" value="创建实例&lt;br&gt;MySqlSnapshotChangeEventSource" style="text;html=1;align=center;verticalAlign=middle;resizable=0;points=[];autosize=1;strokeColor=none;fillColor=none;" vertex="1" parent="1">
          <mxGeometry x="330" y="143" width="220" height="40" as="geometry" />
        </mxCell>
        <mxCell id="Y0rZ0MftGxC1EcNk6RNz-1" value="ConnectorType:MySqlConnector.class" style="text;html=1;align=center;verticalAlign=middle;resizable=0;points=[];autosize=1;strokeColor=none;fillColor=none;" vertex="1" parent="1">
          <mxGeometry x="-150" y="120" width="230" height="30" as="geometry" />
        </mxCell>
        <mxCell id="k3hSCQrrgpwIpEXquyhJ-1" value="&#xa;MySqlSnapshotChangeEventSource.java&#xa;doExecute()" style="shadow=1;fillColor=#cce5ff;strokeColor=#36393d;fontStyle=1" vertex="1" parent="1">
          <mxGeometry x="820" y="170" width="250" height="50" as="geometry" />
        </mxCell>
        <mxCell id="k3hSCQrrgpwIpEXquyhJ-3" value="使用全局读锁&lt;br&gt;lockTablesForSchemaSnapshot" style="text;html=1;align=center;verticalAlign=middle;resizable=0;points=[];autosize=1;strokeColor=none;fillColor=none;" vertex="1" parent="1">
          <mxGeometry x="857" y="229" width="190" height="40" as="geometry" />
        </mxCell>
      </root>
    </mxGraphModel>
  </diagram>
</mxfile>
